<?xml version="1.0" encoding="utf-8"?>
<!-- Generator: Adobe Illustrator 23.0.4, SVG Export Plug-In . SVG Version: 6.00 Build 0)  -->
<svg version="1.1" id="Layer_1" xmlns="http://www.w3.org/2000/svg" xmlns:xlink="http://www.w3.org/1999/xlink" x="0px" y="0px"
	 viewBox="0 0 97.5 100" style="enable-background:new 0 0 97.5 100;" xml:space="preserve">
<style type="text/css">
	.st0{fill-rule:evenodd;clip-rule:evenodd;fill:#FFFFFF;stroke:#231F20;stroke-miterlimit:10;}
</style>
<title>nounproject</title>
<path class="st0" d="M64,43.5v2.2H25.4v-2.2c0-9.9,7.4-18.2,17.2-19.3v21.5h4.3V24.2C56.7,25.3,64.1,33.6,64,43.5 M64.1,73.8
	c0,10.7-8.6,19.3-19.3,19.3s-19.3-8.6-19.3-19.3V50H64L64.1,73.8L64.1,73.8z M88.6,2.8c-1.1-0.5-2.3,0-2.9,1
	c-4.9,7.3-11.3,14.2-22.9,7.6c-6.6-3.8-11.1-2.5-14.1-0.6c-3.2,2.1-5.4,5.4-6,9.1c-12.3,1.1-21.7,11.3-21.6,23.6v30.2
	c-0.3,13,10.1,23.8,23.1,24.1S68,87.8,68.3,74.7c0-0.3,0-0.6,0-1V43.5c0-12.1-9.1-22.3-21.2-23.6c0.5-2.3,1.9-4.2,3.8-5.5
	c3.1-1.9,5.1-1.6,10,0.8c8.2,4.1,13.4,3,17.5,1.4c5-2,8.6-6,11.1-11C90.1,4.6,89.7,3.3,88.6,2.8 M44.7,84.5c2.4,0,4.3-1.9,4.4-4.3
	c0-2.4-1.9-4.3-4.3-4.4c-2.4,0-4.3,1.9-4.4,4.3c0,0,0,0,0,0C40.4,82.6,42.3,84.5,44.7,84.5C44.7,84.5,44.7,84.5,44.7,84.5"/>
</svg>
