<?xml version="1.0" encoding="utf-8"?>
<!-- Generator: Adobe Illustrator 23.0.4, SVG Export Plug-In . SVG Version: 6.00 Build 0)  -->
<svg version="1.1" id="Layer_1" xmlns="http://www.w3.org/2000/svg" xmlns:xlink="http://www.w3.org/1999/xlink" x="0px" y="0px"
	 viewBox="0 0 100 102.2" style="enable-background:new 0 0 100 102.2;" xml:space="preserve">
<style type="text/css">
	.st0{fill:#FFFFFF;stroke:#231F20;stroke-miterlimit:10;}
	.st1{font-family:'Helvetica-Bold';}
	.st2{font-size:72px;}
</style>
<path class="st0" d="M83,5H17C10.4,5,5,10.4,5,17v66c0,6.6,5.4,12,12,12h66c6.6,0,12-5.4,12-12V17C95,10.4,89.6,5,83,5z M89,83
	c0,3.3-2.7,6-6,6H17c-3.3,0-6-2.7-6-6V17c0-3.3,2.7-6,6-6h66c3.3,0,6,2.7,6,6V83z"/>
<text transform="matrix(1 0 0 1 21.2173 74.2303)" class="st0 st1 st2">Q</text>
</svg>
