<?xml version="1.0" encoding="utf-8"?>
<!-- Generator: Adobe Illustrator 23.0.4, SVG Export Plug-In . SVG Version: 6.00 Build 0)  -->
<svg version="1.1"
	 id="Layer_1" xmlns:cc="http://creativecommons.org/ns#" xmlns:dc="http://purl.org/dc/elements/1.1/" xmlns:inkscape="http://www.inkscape.org/namespaces/inkscape" xmlns:rdf="http://www.w3.org/1999/02/22-rdf-syntax-ns#" xmlns:sodipodi="http://sodipodi.sourceforge.net/DTD/sodipodi-0.dtd" xmlns:svg="http://www.w3.org/2000/svg"
	 xmlns="http://www.w3.org/2000/svg" xmlns:xlink="http://www.w3.org/1999/xlink" x="0px" y="0px" viewBox="0 0 100 97.5"
	 style="enable-background:new 0 0 100 97.5;" xml:space="preserve">
<g transform="translate(0,-952.36218)">
	<path d="M49.8,961.4C49.7,961.4,49.7,961.4,49.8,961.4c-0.2,0.1-0.3,0.1-0.4,0.2l-37.8,18.9c-0.3,0.2-0.6,0.5-0.6,0.9
		c0,14.3,0,28.9,0,41.2c0,0.4,0.5,0.7,0.8,0.8l37.8,19.9c0.3,0.2,0.7,0.2,0.9,0c12.7-6.6,25.3-13.4,38-20c0.4-0.2,0.5-0.6,0.5-0.9
		c0-7.3,0-14.7,0-22c0-0.5-0.5-1-1-1s-1,0.5-1,1v20.3l-36-18.9v-37.8l36,18v12.4c0,0.5,0.5,1,1,1s1-0.5,1-1v-13
		c0-0.4-0.2-0.7-0.6-0.9l-37.9-18.9c0,0-0.1,0-0.1-0.1c0,0,0,0-0.1,0c0,0,0,0,0,0c-0.1,0-0.1,0-0.2-0.1c0,0,0,0,0,0c0,0,0,0-0.1,0
		c0,0,0,0,0,0c0,0,0,0-0.1,0c0,0,0,0,0,0c0,0,0,0-0.1,0C49.9,961.4,49.8,961.4,49.8,961.4L49.8,961.4z M49,963.9v37.8
		c-3.4,1.7-7,3.7-10,5.3v-26.6c0-0.6-0.6-1.1-1.2-1c-4.4,2-8.8,4.1-13.2,6.1c-0.3,0.2-0.6,0.5-0.6,0.9v28.5l-11,5.8v-38.7L49,963.9z
		 M57.8,977.4c-0.4,0.1-0.8,0.5-0.8,1v13c0,0.4,0.2,0.7,0.5,0.9l19,10c0.6,0.3,1.5-0.2,1.5-0.9v-13c0-0.4-0.2-0.7-0.5-0.9l-19-10
		C58.3,977.3,58,977.3,57.8,977.4L57.8,977.4z M59,980l7,3.7v10.7l-7-3.7V980z M37,981.9v26.1l-11,5.8V987L37,981.9z M68,984.7
		l8,4.2v10.7l-8-4.2C68,991.9,68,988.3,68,984.7z M29.9,994.3c-0.5,0.1-0.9,0.5-0.9,1v4c0,0.5,0.5,1,1,1s1-0.5,1-1v-4
		C31,994.8,30.4,994.3,29.9,994.3z M50,1003.5l7.1,3.8l-7.6,4.1l-7.1-3.8L50,1003.5z M59.2,1008.4l6.6,3.5l-7.6,4.3l-6.7-3.6
		L59.2,1008.4z M40.2,1008.6l7.1,3.9l-6.6,3.6l-7.1-4L40.2,1008.6z M68,1013l7.6,4l-7.7,4.3l-7.5-4.1
		C62.9,1015.8,65.4,1014.4,68,1013L68,1013z M31.5,1013.2L31.5,1013.2l7.2,4l-7.5,4.1l-7.2-4L31.5,1013.2z M49.5,1013.6l6.7,3.6
		l-6.7,3.7l-6.7-3.7L49.5,1013.6z M77.8,1018.1l8.1,4.3l-8.1,4.2c-2.6-1.4-5.2-2.8-7.8-4.2C72.6,1021,75.2,1019.5,77.8,1018.1
		L77.8,1018.1z M21.7,1018.4L21.7,1018.4l7.3,4.1l-7.2,3.9l-7.6-4L21.7,1018.4z M40.7,1018.4l6.7,3.7l-7.4,4.1l-6.8-3.8L40.7,1018.4
		z M58.2,1018.4l7.5,4.1l-6.8,3.8l-7.4-4.1L58.2,1018.4z M49.5,1023.2l7.4,4.1l-7.4,4.1l-7.4-4.1L49.5,1023.2z M31.1,1023.6l6.8,3.8
		c-2.3,1.3-4.7,2.6-6.9,3.9l-7.1-3.7L31.1,1023.6z M67.9,1023.6l7.7,4.2l-7.4,3.9c-0.1-0.2-0.2-0.4-0.5-0.6l-6.7-3.7L67.9,1023.6z
		 M40,1028.5l7.5,4.2l-6.7,3.7l-7.7-4L40,1028.5z M59,1028.5l7.4,4.1l-7.7,4.1c-0.1-0.1-0.1-0.1-0.2-0.2l-6.9-3.8L59,1028.5z
		 M49.5,1033.8l7.1,3.9l-6.6,3.5l-7.1-3.8L49.5,1033.8z"/>
</g>
</svg>
