<?xml version="1.0" encoding="utf-8"?>
<!-- Generator: Adobe Illustrator 23.0.4, SVG Export Plug-In . SVG Version: 6.00 Build 0)  -->
<svg version="1.1"
	 id="Layer_1" xmlns:cc="http://creativecommons.org/ns#" xmlns:dc="http://purl.org/dc/elements/1.1/" xmlns:inkscape="http://www.inkscape.org/namespaces/inkscape" xmlns:rdf="http://www.w3.org/1999/02/22-rdf-syntax-ns#" xmlns:sodipodi="http://sodipodi.sourceforge.net/DTD/sodipodi-0.dtd" xmlns:svg="http://www.w3.org/2000/svg"
	 xmlns="http://www.w3.org/2000/svg" xmlns:xlink="http://www.w3.org/1999/xlink" x="0px" y="0px" viewBox="0 0 100 97.5"
	 style="enable-background:new 0 0 100 97.5;" xml:space="preserve">
<style type="text/css">
	.st0{fill:#FFFFFF;}
</style>
<path class="st0" d="M56.4,23.5c4.2,0,7.6-3.4,7.6-7.6s-3.4-7.6-7.6-7.6s-7.6,3.4-7.6,7.6S52.2,23.5,56.4,23.5z M71.3,47l-3.7-1.9
	l-1.5-4.6c-2.3-7-8.8-12-16.1-12c-5.7,0-8.8,1.6-14.7,4c-3.4,1.4-6.2,4-7.8,7.3L26.4,42c-1.2,2.5-0.2,5.5,2.2,6.8
	c2.5,1.2,5.5,0.2,6.7-2.3l1.1-2.1c0.6-1.1,1.5-2,2.6-2.4l4.2-1.7l-2.4,9.6C40,53,40.9,56.5,43.2,59l9.4,10.3
	c1.1,1.2,1.9,2.7,2.3,4.4l2.9,11.6c0.7,2.7,3.4,4.4,6.1,3.7c2.7-0.7,4.4-3.4,3.7-6.1l-3.5-14c-0.4-1.6-1.2-3.1-2.3-4.4l-7.2-7.8
	l2.7-10.8l0.9,2.6c0.8,2.5,2.6,4.6,5,5.8l3.7,1.9c2.5,1.2,5.5,0.2,6.7-2.3C74.8,51.3,73.8,48.3,71.3,47L71.3,47z M35.2,69.2
	c-0.5,1.3-1.3,2.4-2.2,3.4l-7.9,7.9c-2,2-2,5.2,0,7.1s5.2,2,7.1,0l9.4-9.4c1-1,1.7-2.1,2.2-3.4l2.1-5.3c-8.7-9.5-6.1-6.6-7.5-8.5
	C38.5,61.1,35.2,69.2,35.2,69.2z"/>
</svg>
