<?xml version="1.0" encoding="utf-8"?>
<!-- Generator: Adobe Illustrator 23.0.4, SVG Export Plug-In . SVG Version: 6.00 Build 0)  -->
<svg version="1.1"
	 id="Layer_1" xmlns:cc="http://creativecommons.org/ns#" xmlns:dc="http://purl.org/dc/elements/1.1/" xmlns:inkscape="http://www.inkscape.org/namespaces/inkscape" xmlns:rdf="http://www.w3.org/1999/02/22-rdf-syntax-ns#" xmlns:sodipodi="http://sodipodi.sourceforge.net/DTD/sodipodi-0.dtd" xmlns:svg="http://www.w3.org/2000/svg"
	 xmlns="http://www.w3.org/2000/svg" xmlns:xlink="http://www.w3.org/1999/xlink" x="0px" y="0px" viewBox="0 0 100 97.5"
	 style="enable-background:new 0 0 100 97.5;" xml:space="preserve">
<style type="text/css">
	.st0{fill:#FFFFFF;stroke:#000000;stroke-miterlimit:10;}
</style>
<path class="st0" d="M53.6,30c3.1,0,5.6-2.5,5.6-5.6s-2.5-5.6-5.6-5.6S48,21.2,48,24.3S50.5,30,53.6,30z M64.7,47.5L62,46.1
	l-1.1-3.4c-1.7-5.2-6.5-8.9-12-8.9c-4.2,0-6.6,1.2-10.9,3c-2.5,1-4.6,3-5.8,5.4l-0.8,1.6c-0.9,1.9-0.2,4.1,1.7,5
	c1.8,0.9,4.1,0.2,5-1.7l0.8-1.6c0.4-0.8,1.1-1.5,1.9-1.8l3.1-1.3L42,49.5c-0.6,2.4,0,5,1.7,6.9l7,7.7c0.8,0.9,1.4,2,1.7,3.3l2.1,8.6
	c0.5,2,2.5,3.2,4.6,2.7s3.2-2.5,2.7-4.6l-2.6-10.4c-0.3-1.2-0.9-2.3-1.7-3.3l-5.3-5.8l2-8.1l0.6,1.9c0.6,1.9,2,3.4,3.7,4.3l2.7,1.4
	c1.8,0.9,4.1,0.2,5-1.7C67.3,50.7,66.6,48.4,64.7,47.5L64.7,47.5z M37.9,64c-0.4,1-0.9,1.8-1.7,2.5l-5.9,5.9c-1.5,1.5-1.5,3.8,0,5.3
	c1.5,1.5,3.8,1.5,5.3,0l7-7c0.7-0.7,1.3-1.6,1.7-2.5l1.6-4c-6.5-7.1-4.5-4.9-5.6-6.3C40.3,57.9,37.9,64,37.9,64z"/>
</svg>
